<svg xmlns="http://www.w3.org/2000/svg" viewBox="0 0 40 40"><path fill="#ff9900" d="M20,2C9.1,2,2.1,9.1,2.1,20S9.1,38,20,38s17.9-7.1,17.9-18S30.9,2,20,2z M27.8,29.3c-2,1.3-4.2,1.6-6.1,1.1 c-0.3-0.1-0.5-0.4-0.4-0.7c0.1-0.3,0.4-0.5,0.7-0.4c1.6,0.4,3.5,0.2,5.2-0.9c0.3-0.2,0.7,0,0.8,0.4C28.1,29,28,29.2,27.8,29.3z M29.6,24.1c-2.3,1.5-5.2,1.7-7.3,1.1c-0.4-0.1-0.7-0.5-0.6-0.9c0.1-0.4,0.5-0.7,0.9-0.6c1.8,0.5,4.2,0.3,6.2-1 c0.4-0.2,0.8,0,0.9,0.4C30.2,23.6,30,24,29.6,24.1z M12.3,19.3c0-0.4-0.3-0.7-0.7-0.7H7.7c-0.4,0-0.7,0.3-0.7,0.7v1.5 c0,0.4,0.3,0.7,0.7,0.7h3.8c0.4,0,0.7-0.3,0.7-0.7V19.3z M30.8,19.3c-2.5,1.7-5.9,2-8.3,1.1c-0.4-0.2-0.9-0.7-0.7-1.1 c0.2-0.4,0.7-0.9,1.1-0.7c2,0.8,4.9,0.5,6.9-0.9c0.4-0.3,0.8,0,1,0.5C31.2,18.6,31.1,19.1,30.8,19.3z M19.4,12.5 c-0.4,0-0.7,0.3-0.7,0.7v6.8h-4.3c-0.4,0-0.7,0.3-0.7,0.7v1.5c0,0.4,0.3,0.7,0.7,0.7h5.1c0.4,0,0.7-0.3,0.7-0.7v-9 c0-0.4-0.3-0.7-0.7-0.7H19.4z"/></svg>