<svg width="40" height="40" viewBox="0 0 24 24" fill="none" xmlns="http://www.w3.org/2000/svg">
<path d="M12 2C6.48 2 2 6.48 2 12C2 17.52 6.48 22 12 22C17.52 22 22 17.52 22 12C22 6.48 17.52 2 12 2ZM12 20C7.59 20 4 16.41 4 12C4 7.59 7.59 4 12 4C16.41 4 20 7.59 20 12C20 16.41 16.41 20 12 20Z" fill="currentColor"/>
<path d="M16.33 17.99C16.14 18.14 15.89 18.2 15.65 18.2C15.46 18.2 15.28 18.16 15.11 18.06C14.73 17.84 14.5 17.42 14.5 16.95V12.76C14.5 12.44 14.39 12.14 14.2 11.95L10.2 8.29C9.89 8 9.47 7.85 9 7.85C8.28 7.85 7.7 8.43 7.7 9.15C7.7 9.47 7.85 9.77 8.09 9.99L11.5 13.15C11.12 13.52 10.82 13.97 10.63 14.47C10.45 14.92 10.36 15.4 10.36 15.9C10.36 17.15 10.95 18.2 11.95 18.79C12.95 19.38 14.2 19.45 15.3 18.96C16.03 18.65 16.53 17.98 16.53 17.18C16.53 16.71 16.36 16.27 16.05 15.96L14.85 14.76C15.09 14.65 15.31 14.5 15.5 14.33C16.12 13.84 16.5 13.06 16.5 12.18C16.5 11.13 15.95 10.23 15.1 9.78C14.25 9.33 13.25 9.45 12.5 10.05L12.23 10.29L13.88 11.83C14.25 12.18 14.5 12.76 14.5 13.38V14.5H14.5V16.95C14.5 17.12 14.55 17.27 14.65 17.37C14.75 17.47 14.89 17.52 15.05 17.52C15.21 17.52 15.35 17.47 15.45 17.37C15.55 17.27 15.6 17.12 15.6 16.95V15.55C15.6 15.29 15.7 15.04 15.87 14.87C16.04 14.7 16.29 14.6 16.55 14.6C16.81 14.6 17.06 14.7 17.23 14.87C17.4 15.04 17.5 15.29 17.5 15.55V16.99C17.5 17.4 17.27 17.76 16.92 17.95L16.33 17.99Z" fill="currentColor"/>
</svg>