<svg width="40" height="40" viewBox="0 0 24 24" fill="none" xmlns="http://www.w3.org/2000/svg">
<path d="M12 2C6.48 2 2 6.48 2 12C2 17.52 6.48 22 12 22C17.52 22 22 17.52 22 12C22 6.48 17.52 2 12 2ZM11.13 16.52H7.2V8.4H11.13C12.98 8.4 14.24 9.68 14.24 11.45C14.24 13.22 12.98 14.5 11.13 14.5H8.75V12.97H11.13C12.19 12.97 12.91 12.3 12.91 11.45C12.91 10.6 12.19 9.93 11.13 9.93H8.75V15.02H11.13C12.19 15.02 12.91 14.35 12.91 13.5C12.91 12.65 12.19 11.98 11.13 11.98H8.75V10.84H11.13C12.98 10.84 14.24 12.12 14.24 13.89C14.24 15.66 12.98 16.94 11.13 16.94V16.52ZM16.8 16.52H15.26L14.12 14.2H13.2V16.52H11.66V8.4H14.12C15.97 8.4 17.23 9.68 17.23 11.45C17.23 12.72 16.55 13.73 15.53 14.2L16.8 16.52ZM14.12 9.93H13.2V12.67H14.12C15.18 12.67 15.9 11.99 15.9 11.14C15.9 10.29 15.18 9.62 14.12 9.62V9.93Z" fill="#E53238"/>
<path d="M12 2C6.48 2 2 6.48 2 12C2 17.52 6.48 22 12 22C17.52 22 22 17.52 22 12C22 6.48 17.52 2 12 2ZM11.13 16.52H7.2V8.4H11.13C12.98 8.4 14.24 9.68 14.24 11.45C14.24 13.22 12.98 14.5 11.13 14.5H8.75V12.97H11.13C12.19 12.97 12.91 12.3 12.91 11.45C12.91 10.6 12.19 9.93 11.13 9.93H8.75V15.02H11.13C12.19 15.02 12.91 14.35 12.91 13.5C12.91 12.65 12.19 11.98 11.13 11.98H8.75V10.84H11.13C12.98 10.84 14.24 12.12 14.24 13.89C14.24 15.66 12.98 16.94 11.13 16.94V16.52Z" fill="#0064D2"/>
<path d="M16.8 16.52H15.26L14.12 14.2H13.2V16.52H11.66V8.4H14.12C15.97 8.4 17.23 9.68 17.23 11.45C17.23 12.72 16.55 13.73 15.53 14.2L16.8 16.52ZM14.12 9.93H13.2V12.67H14.12C15.18 12.67 15.9 11.99 15.9 11.14C15.9 10.29 15.18 9.62 14.12 9.62V9.93Z" fill="#F5AF02"/>
<path d="M12 2C6.48 2 2 6.48 2 12C2 17.52 6.48 22 12 22C17.52 22 22 17.52 22 12C22 6.48 17.52 2 12 2ZM11.13 16.52H7.2V8.4H11.13C12.98 8.4 14.24 9.68 14.24 11.45C14.24 13.22 12.98 14.5 11.13 14.5H8.75V12.97H11.13C12.19 12.97 12.91 12.3 12.91 11.45C12.91 10.6 12.19 9.93 11.13 9.93H8.75V15.02H11.13C12.19 15.02 12.91 14.35 12.91 13.5C12.91 12.65 12.19 11.98 11.13 11.98H8.75V10.84H11.13C12.98 10.84 14.24 12.12 14.24 13.89C14.24 15.66 12.98 16.94 11.13 16.94V16.52Z" fill="#86B817"/>
</svg>