<svg width="40" height="40" viewBox="0 0 24 24" xmlns="http://www.w3.org/2000/svg" fill="none" stroke="currentColor" stroke-width="2" stroke-linecap="round" stroke-linejoin="round" class="lucide lucide-shopping-cart"><path d="M19.1 13.4C19.1 13.4 19 13.7 18.9 14C18.6 15.2 17.6 16.1 16.4 16.2C15 16.3 14.1 15.6 13.6 14.5C13.5 14.1 13.4 13.7 13.4 13.4C13.4 13.4 13.5 13.1 13.5 12.8C13.9 11.6 14.8 10.7 16 10.6C17.5 10.5 18.5 11.2 18.9 12.4C19 12.7 19.1 13.1 19.1 13.4Z" fill="#799C53"/><path d="M12.1 10.6H8.2C7.9 10.6 7.6 10.9 7.6 11.2L7.2 13.4L6.4 13.2C6.1 13.1 5.8 13.3 5.7 13.6L4.9 16.9C4.8 17.2 5 17.5 5.3 17.6L10.9 19C11.2 19.1 11.5 18.9 11.6 18.6L12.7 14.2C12.8 13.9 12.7 13.6 12.4 13.5L11.5 13.2L12.3 11.4C12.4 11 12.3 10.6 12.1 10.6Z" fill="#799C53"/><path d="M18.9 14L18.9 14C19 13.7 19.1 13.4 19.1 13.1C18.5 11.2 17.5 10.5 16 10.6C14.8 10.7 13.9 11.6 13.5 12.8C13.5 13.1 13.4 13.4 13.4 13.7C13.4 13.7 13.5 14 13.6 14.3C14.2 15.9 15.4 16.4 16.7 16.2C17.9 16.1 18.8 15.1 18.9 14Z" stroke="currentColor" stroke-width="1.2" fill="none"/></svg>