<svg xmlns="http://www.w3.org/2000/svg" viewBox="0 0 40 40"><path fill="#7ab55c" d="M31.1,18.6c-0.2-1.3-0.6-2.5-1.2-3.6c-1.2-2.3-3.2-4.1-5.7-5.1c-1-0.4-2-0.6-3.1-0.7c-0.2,0-0.4,0-0.5,0h-1 c-0.8,0-1.6,0.1-2.4,0.3c-2.3,0.6-4.4,1.9-5.9,3.8c-1,1.2-1.7,2.6-2.1,4.1c-0.4,1.5-0.5,3-0.2,4.5c0.3,1.5,0.9,2.9,1.9,4.1 c1.5,1.9,3.5,3.2,5.8,3.9c1.4,0.4,2.9,0.5,4.3,0.3c1.6-0.2,3.1-0.7,4.5-1.6c2.1-1.2,3.8-3,4.8-5.2c1-2.1,1.3-4.5,0.8-6.8 C31.5,19.7,31.3,19.1,31.1,18.6z M25.1,28.8c-2,1-4.2,1.2-6.4,0.6c-0.4-0.1-0.6-0.5-0.5-0.9c0.1-0.4,0.5-0.6,0.9-0.5 c1.8,0.5,3.8,0.3,5.4-0.8c0.4-0.2,0.8,0,1,0.4C25.7,28.1,25.5,28.5,25.1,28.8z M22,17.2c-0.8,0-1.5,0.7-1.5,1.5v7.2 c0,0.8,0.7,1.5,1.5,1.5s1.5-0.7,1.5-1.5v-7.2C23.5,17.9,22.8,17.2,22,17.2z M17,17.2c-0.8,0-1.5,0.7-1.5,1.5v7.2 c0,0.8,0.7,1.5,1.5,1.5s1.5-0.7,1.5-1.5v-7.2C18.5,17.9,17.8,17.2,17,17.2z"/></svg>