<svg width="40" height="40" viewBox="0 0 24 24" fill="none" xmlns="http://www.w3.org/2000/svg">
<path d="M12 2C6.48 2 2 6.48 2 12C2 17.52 6.48 22 12 22C17.52 22 22 17.52 22 12C22 6.48 17.52 2 12 2ZM9.5 17L5 12.5L6.41 11.09L9.5 14.17L17.59 6.09L19 7.5L9.5 17Z" fill="#0071CE"/>
<path d="M11.5 11.5L9.21 4.29C9.09 3.91 8.71 3.69 8.31 3.75L4.53 4.39C4.13 4.45 3.86 4.79 3.88 5.19L6.17 12.41L11.5 11.5Z" fill="#FFC220"/>
<path d="M12.5 11.5L17.83 12.41L20.12 5.19C20.14 4.79 19.87 4.45 19.47 4.39L15.69 3.75C15.29 3.69 14.91 3.91 14.79 4.29L12.5 11.5Z" fill="#FFC220"/>
<path d="M11.5 12.5V19.5L8.5 18L6.21 13.41L11.5 12.5Z" fill="#FFC220"/>
<path d="M12.5 12.5L17.79 13.41L15.5 18L12.5 19.5V12.5Z" fill="#FFC220"/>
</svg>